<svg width="1588" height="881" xmlns="http://www.w3.org/2000/svg" xmlns:xlink="http://www.w3.org/1999/xlink" xml:space="preserve" overflow="hidden"><g transform="translate(-1418 -69)"><text fill="#595959" font-family="Calibri,Calibri_MSFontService,sans-serif" font-weight="700" font-size="110" transform="matrix(1 0 0 1 2111.78 383)">% ausgeprägt</text><text fill="#595959" font-family="Calibri,Calibri_MSFontService,sans-serif" font-weight="700" font-size="110" transform="matrix(1 0 0 1 2112.38 583)">% wird adressiert</text><rect x="1482" y="263" width="115" height="151" fill="#538335"/><rect x="1598" y="263" width="115" height="151" fill="#28235C"/><rect x="1713" y="264" width="115" height="151" fill="#662483"/><rect x="1829" y="264" width="115" height="151" fill="#36A9E1"/><rect x="1944" y="263" width="115" height="151" fill="#C34A48"/><rect x="1482" y="471" width="115" height="151" fill="#9FAF7B"/><rect x="1598" y="471" width="115" height="151" fill="#9895C9"/><rect x="1713" y="471" width="115" height="151" fill="#BDA3CF"/><rect x="1829" y="471" width="115" height="151" fill="#9DCCEF"/><rect x="1944" y="471" width="115" height="151" fill="#DB9489"/><text fill="#595959" font-family="Calibri,Calibri_MSFontService,sans-serif" font-weight="700" font-size="110" transform="matrix(1 0 0 1 2115.93 755)">% </text><text fill="#595959" font-family="Calibri,Calibri_MSFontService,sans-serif" font-weight="700" font-size="110" transform="matrix(1 0 0 1 2220.77 755)">keine Aussage/ </text><text fill="#595959" font-family="Calibri,Calibri_MSFontService,sans-serif" font-weight="700" font-size="110" transform="matrix(1 0 0 1 2219.63 855)">keine Relevanz</text><rect x="1482" y="680" width="115" height="151" fill="#D9DFCA"/><rect x="1598" y="680" width="115" height="151" fill="#D6D5EA"/><rect x="1713" y="680" width="115" height="151" fill="#E5DBEC"/><rect x="1829" y="680" width="115" height="151" fill="#D8EBF9"/><rect x="1944" y="680" width="115" height="151" fill="#ECCFCB"/><text fill="#404040" font-family="Calibri,Calibri_MSFontService,sans-serif" font-weight="700" font-size="110" transform="matrix(1 0 0 1 1484.21 206)">Legende</text></g></svg>