<svg width="2139" height="663" xmlns="http://www.w3.org/2000/svg" xmlns:xlink="http://www.w3.org/1999/xlink" xml:space="preserve" overflow="hidden"><g transform="translate(-80 -856)"><text font-family="Arial,Arial_MSFontService,sans-serif" font-weight="700" font-size="64" transform="matrix(1 0 0 1 118.657 938)">Legende</text><text font-family="Arial,Arial_MSFontService,sans-serif" font-weight="700" font-size="64" transform="matrix(1 0 0 1 381.053 938)">:</text><text font-family="Arial,Arial_MSFontService,sans-serif" font-weight="700" font-size="55" transform="matrix(1 0 0 1 356.329 1244)">Invite</text><text font-family="Arial,Arial_MSFontService,sans-serif" font-weight="700" font-size="55" transform="matrix(1 0 0 1 515.6 1244)">Projekte </text><text font-family="Arial,Arial_MSFontService,sans-serif" font-weight="700" font-size="55" transform="matrix(1 0 0 1 747.631 1244)">mit gemeinsamen Partner</text><path d="M139.5 1225.5 295.406 1225.5" stroke="#7F7F7F" stroke-width="1.14583" stroke-miterlimit="8" fill="none" fill-rule="evenodd"/><path d="M129 1225.5C129 1214.73 137.73 1206 148.5 1206 159.27 1206 168 1214.73 168 1225.5 168 1236.27 159.27 1245 148.5 1245 137.73 1245 129 1236.27 129 1225.5Z" fill="#11A579" fill-rule="evenodd"/><path d="M267 1228.5C267 1217.73 275.73 1209 286.5 1209 297.27 1209 306 1217.73 306 1228.5 306 1239.27 297.27 1248 286.5 1248 275.73 1248 267 1239.27 267 1228.5Z" fill="#11A579" fill-rule="evenodd"/><text font-family="Arial,Arial_MSFontService,sans-serif" font-weight="700" font-size="55" transform="matrix(1 0 0 1 356.329 1473)">Invite</text><text font-family="Arial,Arial_MSFontService,sans-serif" font-weight="700" font-size="55" transform="matrix(1 0 0 1 515.599 1473)">Projekt mit Absicht zum Anschluss an </text><text font-family="Arial,Arial_MSFontService,sans-serif" font-weight="700" font-size="55" transform="matrix(1 0 0 1 1526.73 1473)">MeinBildungsraum</text><path d="M146.5 1455.5 302.405 1455.5" stroke="#7F7F7F" stroke-width="1.14583" stroke-miterlimit="8" fill="none" fill-rule="evenodd"/><path d="M128 1455.5C128 1444.73 136.73 1436 147.5 1436 158.27 1436 167 1444.73 167 1455.5 167 1466.27 158.27 1475 147.5 1475 136.73 1475 128 1466.27 128 1455.5Z" fill="#11A579" fill-rule="evenodd"/><path d="M258 1454C258 1439.64 269.641 1428 284 1428 298.359 1428 310 1439.64 310 1454 310 1468.36 298.359 1480 284 1480 269.641 1480 258 1468.36 258 1454Z" fill="#CC503E" fill-rule="evenodd"/><path d="M168 1013.5C168 1024.27 159.27 1033 148.5 1033 137.73 1033 129 1024.27 129 1013.5 129 1002.73 137.73 994 148.5 994 159.27 994 168 1002.73 168 1013.5Z" fill="#11A579" fill-rule="evenodd"/><text font-family="Arial,Arial_MSFontService,sans-serif" font-weight="700" font-size="55" transform="matrix(1 0 0 1 359.079 1030)">Invite</text><text font-family="Arial,Arial_MSFontService,sans-serif" font-weight="700" font-size="55" transform="matrix(1 0 0 1 518.35 1030)">Projekt</text><path d="M168 1123.5C168 1134.27 159.27 1143 148.5 1143 137.73 1143 129 1134.27 129 1123.5 129 1112.73 137.73 1104 148.5 1104 159.27 1104 168 1112.73 168 1123.5Z" fill="#F2B701" fill-rule="evenodd"/><text font-family="Arial,Arial_MSFontService,sans-serif" font-weight="700" font-size="55" transform="matrix(1 0 0 1 356.329 1137)">MeinBildungsraum</text><text font-family="Arial,Arial_MSFontService,sans-serif" font-weight="700" font-size="55" transform="matrix(1 0 0 1 867.371 1137)">Projekt</text><text font-family="Arial,Arial_MSFontService,sans-serif" font-weight="700" font-size="55" transform="matrix(1 0 0 1 356.329 1357)">Invite</text><text font-family="Arial,Arial_MSFontService,sans-serif" font-weight="700" font-size="55" transform="matrix(1 0 0 1 515.599 1357)">Projekt &amp; </text><text font-family="Arial,Arial_MSFontService,sans-serif" font-weight="700" font-size="55" transform="matrix(1 0 0 1 772.266 1357)">MeinBildungsraum</text><text font-family="Arial,Arial_MSFontService,sans-serif" font-weight="700" font-size="55" transform="matrix(1 0 0 1 1283.31 1357)">Projekt </text><text font-family="Arial,Arial_MSFontService,sans-serif" font-weight="700" font-size="55" transform="matrix(1 0 0 1 1484.97 1357)">mit </text><text font-family="Arial,Arial_MSFontService,sans-serif" font-weight="700" font-size="55" transform="matrix(1 0 0 1 1582.94 1357)">gemeinsamen Partner</text><path d="M139.5 1337.5 295.406 1337.5" stroke="#7F7F7F" stroke-width="1.14583" stroke-miterlimit="8" fill="none" fill-rule="evenodd"/><path d="M129 1338.5C129 1327.73 137.73 1319 148.5 1319 159.27 1319 168 1327.73 168 1338.5 168 1349.27 159.27 1358 148.5 1358 137.73 1358 129 1349.27 129 1338.5Z" fill="#11A579" fill-rule="evenodd"/><path d="M267 1340.5C267 1329.73 275.73 1321 286.5 1321 297.27 1321 306 1329.73 306 1340.5 306 1351.27 297.27 1360 286.5 1360 275.73 1360 267 1351.27 267 1340.5Z" fill="#F2B701" fill-rule="evenodd"/></g></svg>