<svg width="648" height="648" xmlns="http://www.w3.org/2000/svg" xmlns:xlink="http://www.w3.org/1999/xlink" xml:space="preserve" overflow="hidden"><g transform="translate(-333 -1337)"><text font-family="Arial,Arial_MSFontService,sans-serif" font-weight="700" font-size="64" transform="matrix(1 0 0 1 371.657 1419)">Legende</text><rect x="373" y="1804" width="185" height="65" fill="#85519D"/><rect x="373" y="1712" width="185" height="65" fill="#C3ACD4"/><rect x="373" y="1621" width="185" height="65" fill="#DAD0E1"/><text font-family="Arial,Arial_MSFontService,sans-serif" font-weight="400" font-size="50" transform="matrix(1 0 0 1 592.905 1667)">ausgeprägt</text><text font-family="Arial,Arial_MSFontService,sans-serif" font-weight="400" font-size="50" transform="matrix(1 0 0 1 592.904 1761)">vorhanden</text><text font-family="Arial,Arial_MSFontService,sans-serif" font-weight="400" font-size="50" transform="matrix(1 0 0 1 592.904 1854)">i</text><text font-family="Arial,Arial_MSFontService,sans-serif" font-weight="400" font-size="50" transform="matrix(1 0 0 1 604.362 1854)">n Ansätzen</text><text font-family="Arial,Arial_MSFontService,sans-serif" font-weight="400" font-size="50" transform="matrix(1 0 0 1 589.129 1943)">keine Aussage</text><path d="M451.5 1926.5C451.5 1920.42 456.425 1915.5 462.5 1915.5 468.575 1915.5 473.5 1920.42 473.5 1926.5 473.5 1932.57 468.575 1937.5 462.5 1937.5 456.425 1937.5 451.5 1932.57 451.5 1926.5Z" stroke="#172C51" stroke-width="4.58333" stroke-miterlimit="8" fill="#404040" fill-rule="evenodd"/><text font-family="Arial,Arial_MSFontService,sans-serif" font-weight="400" font-size="50" transform="matrix(1 0 0 1 590.079 1513)">Ausprägung in</text><text font-family="Arial,Arial_MSFontService,sans-serif" font-weight="400" font-size="50" transform="matrix(1 0 0 1 590.079 1574)">Unterdimensio</text><text font-family="Arial,Arial_MSFontService,sans-serif" font-weight="400" font-size="50" transform="matrix(1 0 0 1 915.496 1574)">n</text><path d="M400 1510.84 529.921 1510.84 529.921 1521.16 400 1521.16ZM400 1531.47C391.457 1531.47 384.531 1524.54 384.531 1516 384.531 1507.46 391.457 1500.53 400 1500.53 408.543 1500.53 415.469 1507.46 415.469 1516 415.469 1524.54 408.543 1531.47 400 1531.47ZM529.921 1500.53C538.465 1500.53 545.39 1507.46 545.39 1516 545.39 1524.54 538.464 1531.47 529.921 1531.47 521.378 1531.47 514.453 1524.54 514.453 1516 514.453 1507.46 521.378 1500.53 529.921 1500.53Z" fill="#262626"/></g></svg>