<svg width="599" height="744" xmlns="http://www.w3.org/2000/svg" xmlns:xlink="http://www.w3.org/1999/xlink" xml:space="preserve" overflow="hidden"><g transform="translate(-144 -319)"><text font-family="Arial,Arial_MSFontService,sans-serif" font-weight="700" font-size="64" transform="matrix(1 0 0 1 183.085 401)">Legende</text><rect x="185.5" y="848.5" width="135" height="80.0001" stroke="#172C51" stroke-width="4.58333" stroke-miterlimit="8" fill="#85519D"/><rect x="185.5" y="733.5" width="135" height="80.0001" stroke="#172C51" stroke-width="4.58333" stroke-miterlimit="8" fill="#C3ACD4"/><rect x="185.5" y="621.5" width="135" height="80.0001" stroke="#172C51" stroke-width="4.58333" stroke-miterlimit="8" fill="#DAD0E1"/><text font-family="Arial,Arial_MSFontService,sans-serif" font-weight="400" font-size="50" transform="matrix(1 0 0 1 350.479 681)">ausgeprägt</text><text font-family="Arial,Arial_MSFontService,sans-serif" font-weight="400" font-size="50" transform="matrix(1 0 0 1 350.478 799)">vorhanden</text><text font-family="Arial,Arial_MSFontService,sans-serif" font-weight="400" font-size="50" transform="matrix(1 0 0 1 350.478 910)">i</text><text font-family="Arial,Arial_MSFontService,sans-serif" font-weight="400" font-size="50" transform="matrix(1 0 0 1 361.936 910)">n Ansätzen</text><text font-family="Arial,Arial_MSFontService,sans-serif" font-weight="400" font-size="50" transform="matrix(1 0 0 1 348.308 1021)">keine Aussage</text><path d="M236.5 997.5C236.5 991.425 241.425 986.5 247.5 986.5 253.575 986.5 258.5 991.425 258.5 997.5 258.5 1003.58 253.575 1008.5 247.5 1008.5 241.425 1008.5 236.5 1003.58 236.5 997.5Z" stroke="#172C51" stroke-width="4.58333" stroke-miterlimit="8" fill="#404040" fill-rule="evenodd"/><text font-family="Arial,Arial_MSFontService,sans-serif" font-weight="400" font-size="50" transform="matrix(1 0 0 1 352.236 506)">Ausprägung in</text><text font-family="Arial,Arial_MSFontService,sans-serif" font-weight="400" font-size="50" transform="matrix(1 0 0 1 352.236 567)">Unterdimensio</text><text font-family="Arial,Arial_MSFontService,sans-serif" font-weight="400" font-size="50" transform="matrix(1 0 0 1 677.653 567)">n</text><path d="M200 503.844 297.441 503.844 297.441 514.157 200 514.156ZM200 524.469C191.457 524.469 184.531 517.543 184.531 509 184.531 500.457 191.457 493.531 200 493.531 208.543 493.531 215.469 500.457 215.469 509 215.469 517.543 208.543 524.469 200 524.469ZM297.441 493.532C305.984 493.532 312.91 500.457 312.91 509.001 312.91 517.544 305.984 524.469 297.441 524.469 288.898 524.469 281.972 517.544 281.972 509 281.972 500.457 288.898 493.532 297.441 493.532Z" fill="#262626"/></g></svg>